<?xml version="1.0" encoding="UTF-8"?>
<svg id="_レイヤー_1" data-name="レイヤー_1" xmlns="http://www.w3.org/2000/svg" xmlns:xlink="http://www.w3.org/1999/xlink" version="1.1" viewBox="0 0 2913.4 2578.3">
  <!-- Generator: Adobe Illustrator 30.2.1, SVG Export Plug-In . SVG Version: 2.1.1 Build 1)  -->
  <defs>
    <style>
      .st0 {
        fill: none;
      }

      .st1 {
        mask: url(#mask);
      }

      .st2 {
        fill: #efefef;
      }

      .st3 {
        isolation: isolate;
      }

      .st4 {
        mix-blend-mode: darken;
      }

      .st5 {
        fill: #fedd42;
      }

      .st6 {
        fill: #f7f7f7;
      }

      .st7 {
        clip-path: url(#clippath);
      }
    </style>
    <clipPath id="clippath">
      <rect class="st0" x="-.7" y="-.3" width="2907.7" height="2580.8"/>
    </clipPath>
    <mask id="mask" x="341.3" y="-93.1" width="1927.2" height="3086" maskUnits="userSpaceOnUse">
      <g id="e">
        <image class="st3" width="1931" height="3083" transform="translate(341.3 -93.1)" xlink:href="mock-1.png"/>
      </g>
    </mask>
  </defs>
  <g class="st3">
    <g id="b">
      <g id="c">
        <g class="st7">
          <g>
            <rect class="st5" x="-2147.4" y="-691.6" width="5322.9" height="4003.9"/>
            <g class="st4">
              <g class="st1">
                <image class="st3" width="1931" height="3083" transform="translate(341.3 -93.1)" xlink:href="mock-2.png"/>
              </g>
            </g>
            <image class="st3" width="1176" height="2423" transform="translate(866.3 63)" xlink:href="mock-3.png"/>
            <path class="st2" d="M1860.7,77.4h-815.1c-90.6,0-164.2,73.9-164.2,164.7v2066.9c0,90.8,73.7,164.7,164.2,164.7h815.1c90.6,0,164.2-73.9,164.2-164.7V242.1c0-90.8-73.7-164.7-164.2-164.7ZM2013.6,2309.1c0,84.3-68.8,153.3-152.9,153.3h-815.1c-84.1,0-152.9-69-152.9-153.3V242.1c0-84.3,68.8-153.3,152.9-153.3h815.1c84.1,0,152.9,69,152.9,153.3v2066.9h0Z"/>
            <path class="st6" d="M1860.7,88.8h-815.1c-84.1,0-152.9,69-152.9,153.3v2066.9c0,84.3,68.8,153.3,152.9,153.3h815.1c84.1,0,152.9-69,152.9-153.3V242.1c0-84.3-68.8-153.3-152.9-153.3ZM1969.3,2243H937V319.7h1032.2v1923.3h0Z"/>
            <rect class="st5" x="937" y="319.7" width="1032.2" height="1923.3"/>
            <path class="st6" d="M1357.6,1192.6v-39.6h6.7v33.3h18v6.4h-24.7Z"/>
            <path class="st6" d="M1421.6,1187.2c-4,3.9-8.9,5.9-14.8,5.9s-10.8-2-14.8-5.9c-4-3.9-6-8.8-6-14.6s2-10.7,6-14.6c4-3.9,8.9-5.9,14.8-5.9s10.8,2,14.8,5.9c4,3.9,6,8.8,6,14.6s-2,10.7-6,14.6ZM1416.7,1162.3c-2.7-2.8-6-4.2-9.9-4.2s-7.2,1.4-9.9,4.2c-2.7,2.8-4,6.2-4,10.2s1.3,7.4,4,10.2c2.7,2.8,6,4.2,9.9,4.2s7.2-1.4,9.9-4.2c2.7-2.8,4-6.2,4-10.2s-1.3-7.4-4-10.2Z"/>
            <path class="st6" d="M1467.6,1165.9c0,6.5-2.8,10.7-8.5,12.4l10.3,14.4h-8.5l-9.4-13.3h-8.8v13.3h-6.7v-39.6h14.7c6,0,10.3,1,12.9,3.1,2.6,2,3.9,5.3,3.9,9.8h0ZM1458.7,1171.5c1.4-1.2,2-3.1,2-5.6s-.7-4.4-2.1-5.3-3.9-1.4-7.5-1.4h-8.5v14.2h8.3c3.8,0,6.3-.6,7.7-1.8h0Z"/>
            <path class="st6" d="M1505,1153v6.3h-21.1v10.5h18.9v6h-18.9v10.6h21.8v6.3h-28.4v-39.6h27.8Z"/>
            <path class="st6" d="M1520.9,1192.6h-6.7v-39.6h10.4l11.9,24.9,11.9-24.9h10.3v39.6h-6.7v-31l-13.8,27.5h-3.7l-13.7-27.5v31h0Z"/>
            <path class="st6" d="M1357.6,1221.1h6.7v39.6h-6.7v-39.6Z"/>
            <path class="st6" d="M1407.1,1224.5c2.8,2.3,4.1,5.9,4.1,10.7s-1.4,8.3-4.2,10.6c-2.8,2.2-7.1,3.4-12.9,3.4h-7v11.6h-6.7v-39.6h13.6c6,0,10.4,1.2,13.1,3.5h0ZM1402.3,1240.9c1.3-1.4,2-3.5,2-6.2s-.8-4.7-2.5-5.8c-1.7-1.1-4.4-1.7-8-1.7h-6.8v15.9h7.7c3.7,0,6.2-.7,7.6-2.1h0Z"/>
            <path class="st6" d="M1436.1,1226.3c-1.9,0-3.5.4-4.8,1.2-1.2.8-1.9,2-1.9,3.6s.6,2.8,1.9,3.7c1.2.9,3.9,1.8,7.9,2.8,4.1,1,7.1,2.4,9.2,4.1,2.1,1.8,3.1,4.4,3.1,7.9s-1.3,6.3-3.9,8.4c-2.6,2.2-6,3.2-10.2,3.2-6.2,0-11.7-2.1-16.5-6.4l4.2-5.1c4,3.5,8.1,5.2,12.4,5.2s3.9-.5,5.1-1.4c1.3-.9,1.9-2.2,1.9-3.7s-.6-2.7-1.8-3.6c-1.2-.9-3.2-1.6-6.1-2.3-2.9-.7-5.1-1.3-6.6-1.9-1.5-.6-2.8-1.4-4-2.3-2.3-1.8-3.5-4.5-3.5-8.2s1.3-6.5,4-8.5,5.9-3,9.9-3,5,.4,7.5,1.2c2.5.8,4.6,2,6.4,3.5l-3.6,5.1c-1.2-1.1-2.8-1.9-4.8-2.6-2-.7-4-1-5.9-1h0Z"/>
            <path class="st6" d="M1473.7,1251.6c1.8,2.1,4.3,3.2,7.4,3.2s5.5-1.1,7.4-3.2c1.8-2.1,2.7-5,2.7-8.6v-22h6.7v22.2c0,5.7-1.6,10.1-4.7,13.2-3.1,3.1-7.1,4.6-12,4.6s-8.9-1.5-12-4.6c-3.1-3.1-4.7-7.5-4.7-13.2v-22.2h6.7v22c0,3.6.9,6.5,2.7,8.6h0Z"/>
            <path class="st6" d="M1520.1,1260.7h-6.7v-39.6h10.4l11.9,24.9,11.9-24.9h10.3v39.6h-6.7v-31l-13.8,27.5h-3.7l-13.7-27.5v31h0Z"/>
            <path class="st6" d="M1387.6,1294.3c3.8,3.5,5.7,8.3,5.7,14.4s-1.8,11-5.5,14.6c-3.7,3.6-9.4,5.4-17,5.4h-13.1v-39.6h13.6c7.1,0,12.5,1.7,16.3,5.2h0ZM1386.5,1308.9c0-9.1-5.2-13.6-15.5-13.6h-6.7v27.2h7.4c4.8,0,8.5-1.2,11-3.4,2.5-2.3,3.8-5.7,3.8-10.1h0Z"/>
            <path class="st6" d="M1435,1323.3c-4,3.9-8.9,5.9-14.8,5.9s-10.8-2-14.8-5.9c-4-3.9-6-8.8-6-14.6s2-10.7,6-14.6c4-3.9,8.9-5.9,14.8-5.9s10.8,2,14.8,5.9c4,3.9,6,8.8,6,14.6s-2,10.7-6,14.6ZM1430.1,1298.5c-2.7-2.8-6-4.2-9.9-4.2s-7.2,1.4-9.9,4.2c-2.7,2.8-4,6.2-4,10.2s1.3,7.4,4,10.2c2.7,2.8,6,4.2,9.9,4.2s7.2-1.4,9.9-4.2c2.7-2.8,4-6.2,4-10.2s-1.3-7.4-4-10.2Z"/>
            <path class="st6" d="M1449.4,1328.8v-39.6h6.7v33.3h18v6.4h-24.7Z"/>
            <path class="st6" d="M1513.3,1323.3c-4,3.9-8.9,5.9-14.8,5.9s-10.8-2-14.8-5.9c-4-3.9-6-8.8-6-14.6s2-10.7,6-14.6c4-3.9,8.9-5.9,14.8-5.9s10.8,2,14.8,5.9c4,3.9,6,8.8,6,14.6s-2,10.7-6,14.6ZM1508.4,1298.5c-2.7-2.8-6-4.2-9.9-4.2s-7.2,1.4-9.9,4.2c-2.7,2.8-4,6.2-4,10.2s1.3,7.4,4,10.2c2.7,2.8,6,4.2,9.9,4.2s7.2-1.4,9.9-4.2c2.7-2.8,4-6.2,4-10.2s-1.3-7.4-4-10.2Z"/>
            <path class="st6" d="M1559.3,1302c0,6.5-2.8,10.7-8.5,12.4l10.3,14.4h-8.5l-9.4-13.3h-8.8v13.3h-6.7v-39.6h14.7c6,0,10.3,1,13,3.1s3.9,5.3,3.9,9.8h0ZM1550.4,1307.6c1.4-1.2,2-3.1,2-5.6s-.7-4.4-2.1-5.3c-1.4-1-3.9-1.5-7.5-1.5h-8.5v14.2h8.3c3.8,0,6.3-.6,7.7-1.8h0Z"/>
            <path class="st6" d="M1363.2,1387.8l-4,9h-7.1l17.4-39.6h7.1l17.4,39.6h-7.1l-4-9h-19.8,0ZM1380.3,1381.6l-7.2-16.3-7.2,16.3h14.4,0Z"/>
            <path class="st6" d="M1419.9,1396.8h-6.7v-39.6h10.4l11.9,24.9,11.9-24.9h10.3v39.6h-6.7v-31l-13.8,27.5h-3.7l-13.7-27.5v31h0Z"/>
            <path class="st6" d="M1510.1,1357.2v6.3h-21.1v10.5h18.9v6h-18.9v10.6h21.8v6.3h-28.4v-39.6h27.8Z"/>
            <path class="st6" d="M1547.8,1363.3v33.5h-6.7v-33.5h-12v-6.1h30.7v6.1h-12,0Z"/>
            <path class="st6" d="M1654.6,1473h-395.9v-397.1h395.9v397.1ZM1265.3,1466.3h382.6v-383.7h-382.6v383.7Z"/>
          </g>
        </g>
      </g>
    </g>
  </g>
  <image width="216" height="410" transform="translate(939.1 320.6) scale(4.7)" xlink:href="mock-4.png"/>
</svg>